<svg width="120" height="120" viewBox="0 0 120 120" fill="none" xmlns="http://www.w3.org/2000/svg">
<path d="M0 24C0 10.7452 10.7452 0 24 0H96C109.255 0 120 10.7452 120 24V96C120 109.255 109.255 120 96 120H24C10.7452 120 0 109.255 0 96V24Z" fill="url(#paint0_radial_30_29)"/>
<path d="M85.5903 18.8374C82.1876 16.0947 77.9555 14.0452 72.8941 12.689C68.0042 11.3788 63.3573 11.0491 58.9533 11.7C54.6352 12.3739 50.8831 14.0234 47.6972 16.6485C44.6199 19.2112 42.4519 22.8414 41.1931 27.5392C40.1861 31.2974 39.9484 34.7583 40.4799 37.9218C41.0972 41.1082 42.2236 44.1107 43.859 46.9291C45.1507 48.9701 49.2743 53.1578 52.2559 56.1859L52.7946 56.7331L54.5397 58.4376L56.2848 60.1422L59.531 63.0752C62.6592 65.4697 65.3127 67.9201 67.4915 70.4264C69.6703 72.9327 71.1799 75.5343 72.0204 78.2313C72.9695 80.8658 73.0435 83.6778 72.2425 86.6673C71.4185 89.7423 69.9999 92.2916 67.9865 94.3154C65.973 96.3392 63.4535 97.6782 60.4279 98.3322C57.4881 99.0093 54.088 98.8306 50.2276 97.7962C44.1367 96.1641 40.0219 93.5053 37.8833 89.8196C35.7676 86.0486 35.3048 81.9423 36.4949 77.5008C37.3417 74.3404 38.686 71.7254 40.5279 69.6556C42.4555 67.6088 44.8721 65.9676 47.7777 64.7322C49.0973 64.171 49.5976 62.7077 50.2276 62C50.2276 62 48.4887 59.7448 46.3563 58.9845C43.8449 58.0891 41.3156 57.1873 39.5168 57.9871C36.2624 59.4953 33.4082 61.5685 30.9543 64.2066C28.5005 66.8448 26.7128 70.2565 25.5914 74.4419C24.1953 79.6521 24.1204 84.3925 25.3667 88.663C26.636 92.848 29.1521 96.4975 32.915 99.6113C36.7638 102.748 41.8194 105.156 48.0819 106.834C53.8296 108.374 59.0799 108.682 63.8327 107.758C68.6714 106.858 72.7409 104.881 76.0413 101.829C79.4503 98.7146 81.8415 94.5949 83.2147 89.47C84.3361 85.2847 84.4395 81.4674 83.5248 78.0182C82.6101 74.569 80.9919 71.3432 78.6702 68.3409C76.8803 65.9368 70.1912 59.8058 67.3169 57.2088L67.3116 57.204L64.4039 54.5434L64.393 54.5335C61.9356 52.2442 57.367 47.96 55.9812 46.4696C54.0769 44.3115 52.6816 41.9694 51.7954 39.4432C50.995 36.9401 51.0182 34.1083 51.865 30.948C53.0093 26.6773 55.2516 23.7993 58.5919 22.3141C62.0408 20.7665 65.9528 20.5788 70.328 21.7512C74.8747 22.9695 78.2117 25.0995 80.3389 28.1412C82.4891 31.0976 82.9919 34.7111 81.8476 38.9818C81.0237 42.0568 79.6708 44.5322 77.7889 46.4082C75.93 48.1987 74.8069 49.2416 72.1645 50.1814C70.426 50.8361 69.684 52.6655 69.3872 53.7693C69.3269 54.0621 69.8955 54.8652 72.652 55.7358C75.2229 56.4324 78.5697 57.0687 80.25 56.2681C83.31 54.7993 85.9354 52.8937 88.1261 50.5512C90.4027 48.2317 92.033 45.2356 93.0172 41.5627C94.2988 36.7795 94.2593 32.4662 92.8985 28.6228C91.5377 24.7794 89.1016 21.5176 85.5903 18.8374Z" fill="url(#paint1_radial_30_29)"/>
<defs>
<radialGradient id="paint0_radial_30_29" cx="0" cy="0" r="1" gradientUnits="userSpaceOnUse" gradientTransform="translate(60 60) rotate(-140.95) scale(126.191)">
<stop stop-color="#212121"/>
<stop offset="1"/>
</radialGradient>
<radialGradient id="paint1_radial_30_29" cx="0" cy="0" r="1" gradientUnits="userSpaceOnUse" gradientTransform="translate(60.4301 59.7458) rotate(78.2205) scale(54.5275 45.2256)">
<stop stop-color="#FFCC00"/>
<stop offset="1" stop-color="#FFBB00"/>
</radialGradient>
</defs>
</svg>
